<svg xmlns="http://www.w3.org/2000/svg" xmlns:xlink="http://www.w3.org/1999/xlink" viewBox="0 0 677 1544"><defs><style>.cls-1{isolation:isolate;}.cls-2,.cls-29,.cls-41,.cls-8{fill:none;}.cls-2{stroke:#0bbbef;stroke-linejoin:round;stroke-width:10px;mix-blend-mode:overlay;}.cls-2,.cls-29{stroke-linecap:round;}.cls-2,.cls-34,.cls-35{opacity:0.6;}.cls-3{fill:#fabc95;}.cls-4{fill:#f3d05d;}.cls-21,.cls-5{opacity:0.2;}.cls-19,.cls-34,.cls-35,.cls-5{mix-blend-mode:multiply;}.cls-6{fill:url(#linear-gradient);}.cls-7{fill:url(#linear-gradient-2);}.cls-8{stroke:#000;}.cls-29,.cls-8{stroke-miterlimit:10;}.cls-9{fill:#00518c;}.cls-10{fill:#0e3e5b;}.cls-11{fill:#562e03;}.cls-12{fill:#8f3618;}.cls-13{fill:#f3a479;}.cls-14,.cls-17,.cls-22{fill:#851200;}.cls-14{opacity:0.5;}.cls-15{fill:#744f3f;}.cls-16{fill:#fddcbc;}.cls-17{opacity:0.3;}.cls-18{fill:#fff;}.cls-19,.cls-20{fill:#5e3620;}.cls-19{opacity:0.4;}.cls-23{fill:#ac6845;}.cls-24{fill:#492a17;}.cls-25{fill:#9b6941;}.cls-26{fill:#3b210f;}.cls-27{fill:#7b5329;}.cls-28{fill:#d2e5f0;}.cls-29{stroke:#8f3618;stroke-width:0.75px;}.cls-30{fill:#7ed2fc;}.cls-31{fill:#a6a7b0;}.cls-32{fill:#f9dd8f;}.cls-33{fill:#fcceb4;}.cls-34{fill:url(#linear-gradient-3);}.cls-35{fill:url(#linear-gradient-4);}.cls-36{fill:#3a261d;}.cls-37{fill:#281307;}.cls-38{fill:#774c3d;}.cls-39{fill:#513c33;}.cls-40{fill:#16100e;}</style><linearGradient id="linear-gradient" x1="6899.49" y1="1115.17" x2="6796.32" y2="1269.92" gradientTransform="matrix(-1, 0, 0, 1, 7051.74, 0)" gradientUnits="userSpaceOnUse"><stop offset="0" stop-color="#fff"/><stop offset="1"/></linearGradient><linearGradient id="linear-gradient-2" x1="6775.51" y1="1063.96" x2="6639.12" y2="1253.68" xlink:href="#linear-gradient"/><linearGradient id="linear-gradient-3" x1="6670.39" y1="212.6" x2="6677.2" y2="213.46" gradientTransform="matrix(-1, 0, 0, 1, 7051.74, 0)" gradientUnits="userSpaceOnUse"><stop offset="0" stop-color="#2a184e"/><stop offset="0.4" stop-color="#160c28" stop-opacity="0.51"/><stop offset="0.78" stop-color="#06030b" stop-opacity="0.14"/><stop offset="1" stop-opacity="0"/></linearGradient><linearGradient id="linear-gradient-4" x1="6139.53" y1="722.21" x2="7357.24" y2="876.97" xlink:href="#linear-gradient-3"/></defs><g class="cls-1"><g id="Capa_1" data-name="Capa 1"><path class="cls-2" d="M111.52,908.35c.14,1.66,1.75,4.14,4.25,7.07l2-.56,1.76,5.47c1.56,1.61,2.64,1.74,4.48,3.45l3.12-1,2.65,7.25c3.35,3,3.53,2.65,6.89,4.06l5.1-.85s1.66,4.2,3.32,8.47c5.25,4.18,9,7,9,7l20.23-7-.7-11.23,15.44-4.1L197.84,908s1.32-11.94-1-22.3c-.53-3.31-1.32-6-2.48-7.27-5.51-10.92-20.25-32.77-20.25-32.77l-13.25-22.09s29-34.68,41.77-44.33a9.21,9.21,0,0,0,1.34-1.32c-.72,3.1-9.24,41.29-6.23,111,3.14,72.73,37.7,146.3,37.7,146.3L237,1058.6l-3.14,19.23L241,1092l-2.35,17.56,4.71,14.21L237,1140.53a28.31,28.31,0,0,0,.63,3.7l-3.41.45-1.28,5.49s54.93,158.25,54.93,161.92-4.47,7.33.64,11.61a9.19,9.19,0,0,1,3.19,9.77s-7,6.72-12.13,12.83S226,1386,223.4,1387.24s-22.35-3.06-37,.61-14.69,15.28-14.69,15.28l-.1.38h0l-3.09,11.83s2,.77,5.51,1.88h0l.12,0,1.84.57h0c.65.2,1.35.41,2.07.61l.41.12,2,.57.32.09,2.43.65.58.14,2.18.55.59.14c.89.22,1.8.43,2.73.64l.73.16c.76.17,1.54.34,2.34.5l.8.17,3,.59.78.15,2.57.45.92.15c1.08.18,2.17.35,3.28.51l.75.11c.93.13,1.87.26,2.83.37l1,.13c1.17.14,2.34.27,3.54.38l.58.06,3.17.26,1,.07c1.25.09,2.5.16,3.76.22h.35c1.16,0,2.34.08,3.51.1h1c1.3,0,2.6,0,3.91,0,31.94-.61,49.18-1.22,57.48-8.55S316,1408,316,1408v6.72l6.38,4.28c21.08,3,62.59-5.5,62.59-5.5,1.28-6.11,3.84-25,3.84-25l-3.84-1.22c3.2-22-14.69-61.71-14.69-61.71l-10.21-4.28,3.19-3.66-3.19-6.11s-6.39-37.27-7-50.72-1.92-65.37-1.28-69-1.91-55.6-1.91-55.6L346,1130l-.49.07c.06-3.33-.12-5.43-.12-5.43l-12.57-17.56v-12.54l-8.64-5.85c1.57-5-.78-17.56-.78-17.56s-8.64-5-11-7.52-8.63-10.87-8.63-10.87l-4.71-111.19c28.27,87.78,66,119.55,66,119.55s7.07,26.75,2.36,31.77,3.14,18.39,5.49,24.25,3.14,30.09,3.14,30.09a22.59,22.59,0,0,0,2.72,6.74c4.57,17.59,19.35,71.92,33.69,95.8,17.25,28.72,22.36,67.83,23,70.27s-1.92,6.72-.64,9.17,3.19,5.49,1.27,9.77,2.56,4.28,2.56,4.28l3.83,8.55s-4.47,4.89-5.75,9.78,3.2,6.72,3.84,8.55-.64,7.33-.64,20.78-17.25,33.6-26.19,42.15-8,26.44-8,26.44l-4.47,1.22-.63,8.55s1.86,4.28,8.09,8.39h0l0,0c.38.25.76.49,1.17.73l.08,0c.39.23.8.47,1.22.7l.18.09,1.23.64.25.11,1.28.6.32.13c.43.18.86.37,1.32.54.13.06.27.1.41.15.44.17.88.34,1.34.5l.53.16,1.35.44.64.17c.45.13.9.26,1.37.38l.75.18c.45.11.91.22,1.39.32l.85.17,1.41.27,1,.15,1.43.22,1.11.13c.48,0,.95.12,1.44.16l1.25.11,1.44.11,1.39.07c.49,0,.95,0,1.45.06s1.08,0,1.63,0l1.36,0c1,0,2.07,0,3.14-.06,34.49-1.22,59.4-14.06,62-18.94s4.47-21.39,4.47-21.39c9.93,1.45,14-4.89,14-4.89l-.88-17.2h0l-.4-7.85s-1.27-10.38-4.47-15.27-6.38-29.94-6.38-29.94,1.91-9.16,2.55-11-4.47-3.66-8.3-3.66,3.83-4.28,5.11-6.73-5.75-22-5.75-22a125.92,125.92,0,0,1,1.28-33.6c3.19-18.33,2.55-94.1,1.27-106.32s-20-61.77-20-61.77l-4.49-3.82-1.26-1.07-1.54.38a34.79,34.79,0,0,0-2.28-8.67l-14.92-13.37-5.5-17.56-23.65-14.56,5.43-24.7-7.9-10.52s-5.92-37.31-6.42-49.4S417,817.7,417,817.7s3.46-15.77,5.92-22.6S414,714.69,414,714.69l1.57-67.45,24.13-26c8.42,22.39,23.07,47.75,23.07,47.75s0,.15,0,.41,0,.93,0,1.71h0c-.1,4.55-.34,15.8-.36,27.31v4c0,.62,0,1.23,0,1.85v.07c0,.62,0,1.23,0,1.84v.18c0,.55,0,1.1,0,1.65,0,.07,0,.14,0,.21,0,.58,0,1.16,0,1.74v.2c0,.5,0,1,0,1.47,0,.12,0,.24,0,.37l0,1.62v.09c0,.5,0,1,0,1.48v.35c0,1,.06,2,.1,3,0,.12,0,.23,0,.34,0,.42,0,.82,0,1.22a1.28,1.28,0,0,1,0,.19c0,.45,0,.88.07,1.3,0,.1,0,.2,0,.3,0,.35,0,.7.06,1,0,.08,0,.17,0,.25,0,.39.05.77.08,1.13,0,.08,0,.16,0,.24,0,.3,0,.6.07.88l0,.23c0,.34.06.65.09,1a1,1,0,0,1,0,.17l.09.72,0,.21c0,.26.08.52.12.75,0,0,0,0,0,.08,0,.2.08.39.11.57a.83.83,0,0,1,0,.15,5,5,0,0,0,.14.53c2.33,7.59,12.13,32.89,12.13,32.89l4.32,54.63s-17.8,19.38-28.09,30.85l-3.21,3.59-1.2,1.34-.88,1-1.39,1.55-.59.66-1.35,1.51-.54.61c-.5.56-1,1.1-1.45,1.63l-.23.25c-2.27,2.56-4.13,4.69-5.67,6.51l-.09.1-1,1.22-.07.09c-6.19,7.48-6.39,9.43-8.41,16.75-2.08,7.54.39,17,6.72,22.94a11.68,11.68,0,0,1,8.7,6.33s1.93,4.92,3.75,9.63c1,6.19,2.29,5.92,3,7.77,1.21,3.28,14.16,7.7,19,4.42s18.22-7.75,18.22-7.75,12.94-4.82,17.84-6.45c5.45-.82,12.14-11.82,12.14-11.82a7.69,7.69,0,0,0,5.5-.94,11.38,11.38,0,0,0,5.53-5.5c7.36-11.44-3-64-3-64l43.54-137.58c-2.33-19-18.2-62.62-18.2-62.62s2.14-34-.2-48.12c4-4,10.47-17,10.47-17s10.27-23.4,11.2-37.31c.81-12-7.82-36.4-10.16-42.73h0l0-.05c-.35-1-.56-1.5-.56-1.5l.47-38.58c-.66-1.52-1.36-3-2.07-4.49l-.66-1.34c-.53-1.06-1.06-2.1-1.6-3.14l-.74-1.39c-.6-1.11-1.22-2.2-1.84-3.29l-.54-1q-1.25-2.14-2.55-4.23l-.2-.3q-1.2-1.92-2.45-3.78c-.19-.3-.39-.59-.6-.89-.74-1.09-1.48-2.17-2.24-3.24l-.51-.72a215.67,215.67,0,0,0-41.42-43.08l-36.41-2.53c-.85.44-1.72.92-2.6,1.44-18.43-4.59-41.62-11.23-61.77-19.68-7.52-29.2-19.94-75.08-25.13-94.22,8.67-4.09,20.67-14.68,27.58-28.92.23-.49.44-1,.63-1.44s.31-.78.45-1.17h0c5.27-14.67-5.56-27.1-13.3-30.28h0c-.31-.13-.62-.24-.93-.34l-.06,0c-.29-.09-.56-.16-.83-.22l-.12,0a6.75,6.75,0,0,0-.72-.12l-.17,0c-.22,0-.42,0-.62,0h-.2a5,5,0,0,0-.56.07l-.18,0a4.62,4.62,0,0,0-.66.21,23.11,23.11,0,0,0-6.38,4.67l1.06-4.54c12.43-6.67,18.31-16.76,20.4-27.18h0q.27-1.32.45-2.64a1.38,1.38,0,0,0,0-.2h0a57.77,57.77,0,0,0-5.63-32.62h0c-.17-.32-.34-.62-.51-.92s-.25-.44-.38-.65-.23-.37-.34-.54-.31-.48-.46-.71-.3-.43-.46-.64l-.24-.32c-.21-.28-.43-.53-.64-.77l-.16-.17c-.23-.24-.46-.47-.68-.66-.37-.33-.72-.62-1.06-.89l-.13-.1-.13-.11c-.35-.28-.68-.53-1-.76l-.16-.12c-.31-.23-.61-.43-.9-.62l-.13-.08c-.29-.19-.57-.36-.84-.52l-.05,0c-.28-.16-.56-.3-.82-.43h0l-.78-.35-.06,0-.76-.3h0a39.64,39.64,0,0,1-10.84-5l-1.08-.7-.19-.13-1.3-.88c-9.06-6.26-9.06-11.53-25.74-22.94-.66-.45-1.31-.88-2-1.3h0a58.51,58.51,0,0,0-7.9-4.25h0a45.59,45.59,0,0,0-6-2.15l-.21-.05c-1-.26-1.92-.49-2.87-.67h0a35.1,35.1,0,0,0-5.69-.62H322c-.9,0-1.81,0-2.7,0h-.14a34.47,34.47,0,0,0-5.35.76l-.29.07c-.85.2-1.69.42-2.53.68l-.26.09a39.31,39.31,0,0,0-5,2l-.39.18c-.79.38-1.57.78-2.35,1.22l-.39.22c-.79.44-1.57.9-2.35,1.4l-.06,0c-.79.5-1.57,1-2.35,1.58l-.45.32c-.75.54-1.49,1.1-2.24,1.69l-.44.35c-.77.61-1.54,1.25-2.31,1.91-9.76,8.44-7.3,18.25-3.72,24.81l-.34.16-.07,0c-1.12.56-2.24,1.15-3.35,1.76l-.18.1c-1.08.6-2.15,1.24-3.22,1.89a2.26,2.26,0,0,1-.26.16c-.8.5-1.61,1-2.4,1.56-4.56.6-10.2,2-14.6,5.12-5.73,4.1-7.71,10.86-7.85,17.79-.61.95-1.21,1.91-1.79,2.9-.09.14-.17.29-.26.44-.4.69-.8,1.4-1.19,2.11-5.93,4.34-12.42,10.56-11.54,15.49,1.3,7.28,3.36,14.32,7.52,14.65.69,2.06,1.51,4.27,2.54,6.58a14.08,14.08,0,0,1-1.23,8.15c-.13.3-.28.63-.44,1-6.48,2.41-12.28,5.82-12.89,10.41C236,231,240.36,242,247.93,248c-.93,14.8-3.69,40.74-11.75,52.06-.33.45-.61.91-.89,1.36l-.19.33c-.26.44-.5.89-.71,1.33l-.06.15c-.19.41-.35.81-.49,1.21a2.79,2.79,0,0,0-.12.34,12.75,12.75,0,0,0-.38,1.3,2.21,2.21,0,0,0-.05.25c-.08.37-.15.73-.2,1.1,0,.11,0,.23,0,.35-.05.41-.07.82-.08,1.24,0,.11,0,.22,0,.33,0,.33,0,.66.05,1,0,.12,0,.24,0,.37a11.22,11.22,0,0,0,.19,1.16c0,.14.07.27.1.41.08.29.16.59.26.88l.12.38c.13.37.28.73.44,1.08.07.16.15.31.22.47s.27.5.41.75.19.35.3.52.38.59.58.88l.37.5c.16.21.33.43.51.64s.41.48.63.72.37.4.56.59l.53.53.57.51.95.81.55.43.71.52.56.39c.42.28.85.56,1.29.83l.54.32.88.51.47.24c.55.29,1.1.57,1.68.83l.57.27c1.17.52,2.39,1,3.68,1.45l.53.18c.44.15.87.29,1.32.42l.67.2.15,0,.18.05c.33.09.66.19,1,.27l.63.16.52.13,1.54.35.63.13.57.12.24.24c.3.3.6.62.89.93l.33.36c.39.44.77.88,1.14,1.34l.08.11c.34.42.66.84,1,1.27l.3.42.69,1,.31.47c.22.33.42.67.63,1l.27.44.67,1.18.14.25c.27.5.54,1,.78,1.5l0,0c.24.47.46,1,.68,1.42.05.1.09.19.13.29l.52,1.18.12.29c.18.42.34.84.5,1.25l.06.14c.56,1.45,1,2.85,1.41,4.15h0a50.61,50.61,0,0,1,1.75,7.85s-4.25,11.67-15.51,25.25a125.31,125.31,0,0,1-9.62,10L232,402.5s-16.61,4.1-31.7,7.95c-12.45-1-32.31-.49-42,10.54-14.79,16.77-34.91,66.06-34.91,66.06l7.8,29.47-.08.34c0,.07,0,.16-.07.25a.94.94,0,0,0,0,.16c0,.1-.06.22-.09.34l-.06.22c0,.14-.08.3-.12.47s0,.13-.05.21-.1.39-.15.61l-.06.21c-.05.21-.11.44-.16.66l-.08.31L130,521c0,.1,0,.2-.07.3l-.21.87a2.46,2.46,0,0,0-.07.29c-.07.3-.14.6-.22.92,0,.12-.06.24-.08.36-.08.32-.15.64-.23,1,0,.12,0,.24-.08.37q-.12.51-.24,1c0,.12-.05.24-.08.36-.08.37-.17.74-.25,1.11,0,.13,0,.26-.08.38-.08.39-.17.77-.25,1.17,0,.12-.05.25-.08.38-.09.4-.17.81-.26,1.22,0,.12,0,.24-.07.37-.09.42-.17.84-.26,1.27v.08h0c-1.92,9.64-3.57,21.1-2.07,26.7,2.88,10.67,14.38,37.6,14.38,37.6S130,639,142.27,670.49c0,0-.33.76-.89,2.1l-.07.15c-.1.25-.21.5-.33.79l-.1.23c-.11.28-.23.56-.36.86s-.33.81-.52,1.25c0,.12-.1.25-.15.37-.14.36-.29.71-.45,1.1l-.2.5-.46,1.13-.21.53-.5,1.24-.21.54-.56,1.39c-.06.18-.13.35-.2.52-.2.5-.39,1-.6,1.53l-.19.51L135.6,687l-.15.4c-.27.7-.53,1.41-.81,2.14l0,.08c-.87,2.32-1.76,4.77-2.65,7.3-.05.13-.1.27-.14.4-.25.69-.49,1.38-.73,2.08l-.21.61c-.21.64-.43,1.28-.65,1.93-.08.23-.15.46-.23.69-.21.63-.42,1.26-.62,1.89l-.24.74c-.21.63-.41,1.27-.61,1.92-.08.22-.15.45-.22.68-.22.7-.43,1.39-.64,2.09,0,.17-.11.34-.16.52-.26.85-.51,1.71-.76,2.56a.06.06,0,0,1,0,0c-.26.9-.51,1.8-.75,2.69a.19.19,0,0,0,0,.07q-.34,1.25-.66,2.46c-.06.24-.11.47-.17.7-.16.61-.31,1.21-.46,1.81-.07.29-.13.58-.2.86-.13.55-.25,1.09-.37,1.62l-.21.92c-.1.51-.21,1-.31,1.51-.07.32-.13.63-.19.94-.09.48-.18,1-.27,1.44,0,.31-.11.62-.16.92-.08.48-.15,1-.23,1.43,0,.28-.08.57-.13.85-.07.51-.13,1-.19,1.5,0,.23-.06.46-.08.69-.08.71-.15,1.42-.19,2.1-1.65,22.86-.23,89.15-.23,89.15s0,.25-.11.72c0,.11,0,.22,0,.35s-.06.35-.09.56,0,.19,0,.3,0,.17,0,.26-.06.41-.1.63a.77.77,0,0,1,0,.15c0,.17,0,.34-.08.52-.06.39-.12.82-.19,1.27a.59.59,0,0,1,0,.13l-.06.41c0,.28-.08.56-.12.86,0,.09,0,.19,0,.29,0,.31-.09.63-.14,1l-.06.37c-.06.41-.12.83-.18,1.27l0,.17c-.07.46-.14.94-.21,1.42,0,.1,0,.21,0,.32-.06.34-.11.69-.16,1.05s-.07.47-.1.71-.12.78-.18,1.19c0,.11,0,.23,0,.35-.08.56-.17,1.14-.25,1.73l0,.22c-.08.52-.16,1-.23,1.57,0,.15,0,.29-.07.44-.07.5-.14,1-.22,1.53,0,.11,0,.22,0,.33-.19,1.32-.38,2.68-.58,4.08v0c-.11.71-.21,1.42-.31,2.14v0C114.9,873.27,111,902.38,111.52,908.35ZM379.2,211.75c-.77.81-1.54,1.65-2.29,2.53v-.21C377.84,213.07,378.61,212.3,379.2,211.75Z"/><path class="cls-3" d="M141.75,933.26l-5.1.85c-3.36-1.41-3.54-1.05-6.89-4.06l-2.65-7.25-3.12,1c-1.84-1.71-2.92-1.84-4.48-3.45l-1.76-5.47-2,.56c-2.5-2.93-4.11-5.41-4.25-7.07-.82-9.91,10.4-83.66,10.4-83.66s-1.42-66.29.23-89.15,20.12-65,20.12-65c-12.32-31.5-2.46-73.68-2.46-73.68s-11.5-26.93-14.38-37.6,5.75-42.69,5.75-42.69l-7.8-29.47S143.5,437.76,158.29,421s53-9.14,53-9.14,1.24,185,5.34,232.22-1.23,125.51-14,135.17-41.77,44.33-41.77,44.33l13.25,22.09s14.74,21.85,20.25,32.77S197.84,908,197.84,908L189,926.42l-15.44,4.1.7,11.23-20.23,7s-3.73-2.82-9-7C143.41,937.46,141.75,933.26,141.75,933.26Z"/><path class="cls-4" d="M158.29,421c14.79-16.77,53-9.14,53-9.14s.4,59.36,1.49,119.42l-30.15,3.14s-31.14,4-55.12-1.9c1.73-8.74,3.68-16,3.68-16l-7.8-29.47S143.5,437.76,158.29,421Z"/><path class="cls-5" d="M166,944.52c-3.85-36.06-6.09-71.55-6.09-71.55s-21-33.83-16-60.16,31.35-140.45,31.35-140.45c-15.05,8.77-27.66-5.64-27.66-5.64C132.42,636,145.72,603,145.72,603l5.5,10.08c-.46-11.46-5.5-17.88-5.5-17.88-15.59-27.05-10.55-57.76-10.55-57.76l-4-20.92-7.8-29.47.42-1c12.61,10.92,27.88,17,27.88,17l39.43-19.26,20.5-35.19c.19,17.51.45,39.7.82,63V512c0,1.54.05,3.1.08,4.65,0,.5,0,1,0,1.5,0,1.26,0,2.52.07,3.79,0,.5,0,1,0,1.51,0,.78,0,1.56,0,2.34l.06,3,0,2.08c.84,46,2.08,92.58,3.86,113.11,4.11,47.26-1.23,125.51-14,135.17s-41.77,44.33-41.77,44.33l13.25,22.09s12,23.9,20.25,32.77c4.32,4.63,3.45,29.57,3.45,29.57L189,926.42l-15.44,4.1.7,11.23Z"/><path class="cls-6" d="M346,1130l3.84,6.11s2.55,51.94,1.91,55.6.64,55.6,1.28,69,7,50.72,7,50.72l3.19,6.11-3.19,3.66,10.21,4.28s17.89,39.71,14.69,61.71l3.84,1.22s-2.56,18.94-3.84,25c0,0-41.51,8.55-62.59,5.5l-6.38-4.28V1408s-21.08,1.84-29.38,9.17-25.54,7.94-57.48,8.55-60.67-10.39-60.67-10.39l3.19-12.21s0-11.61,14.69-15.28,34.49.61,37-.61,51.1-34.83,56.21-40.94,12.13-12.83,12.13-12.83a9.19,9.19,0,0,0-3.19-9.77c-5.11-4.28-.64-8-.64-11.61S233,1150.17,233,1150.17l1.28-5.49Z"/><path class="cls-7" d="M381.79,1144.06l-4.47,4.28s17.88,72.71,35.12,101.42,22.36,67.83,23,70.27-1.92,6.72-.64,9.17,3.19,5.49,1.27,9.77,2.56,4.28,2.56,4.28l3.83,8.55s-4.47,4.89-5.75,9.78,3.2,6.72,3.84,8.55-.64,7.33-.64,20.78-17.25,33.6-26.19,42.15-8,26.44-8,26.44l-4.47,1.22-.63,8.55s7.34,17,41.83,15.73,59.4-14.06,62-18.94,4.47-21.39,4.47-21.39c9.93,1.45,14-4.89,14-4.89l-1.28-25s-1.27-10.38-4.47-15.27-6.38-29.94-6.38-29.94,1.91-9.16,2.55-11-4.47-3.66-8.3-3.66,3.83-4.28,5.11-6.73-5.75-22-5.75-22a125.92,125.92,0,0,1,1.28-33.6c3.19-18.33,2.55-94.1,1.27-106.32s-20-61.77-20-61.77l-4.49-3.82-1.26-1.07Z"/><path class="cls-8" d="M487.7,1462.12c14.84-2.63,16.27-17.46,17.47-21.77a15.67,15.67,0,0,1,4.78-7.18,19.32,19.32,0,0,0,11.72-10.76l.38.17.88,17.2s-4.12,6.34-14,4.89c0,0-1.91,16.5-4.47,21.39s-27.46,17.72-62,18.94-41.83-15.73-41.83-15.73l.63-8.55,4.22-1.15.4.16C427.42,1468.82,472.87,1464.75,487.7,1462.12Z"/><path class="cls-8" d="M283,1410.59c8.84-7.55,35.8-9.7,35.8-9.7s40.34-1.94,50.69-4.32a28,28,0,0,0,15.48-9.33l3.84,1.22s-2.56,18.94-3.84,25c0,0-41.51,8.55-62.59,5.5l-6.38-4.28V1408s-21.08,1.84-29.38,9.17-25.54,7.94-57.48,8.55-60.67-10.39-60.67-10.39l3.09-11.83a176.76,176.76,0,0,1,18.48,4.93C209.24,1414.47,274.17,1418.14,283,1410.59Z"/><path d="M419.64,1460.18s-6.7-5,.84-16.77,43.58-5.86,43.58-5.86c-4.19-7.54-26-6.71-26-6.71s-3.35-10,10.06-18.44,12.57-32.68,12.57-32.68-8.38-10.9,2.51-10.9,36-12.57,36-12.57-31,4.19-40.23,1.68S469.93,1347,475,1347s5.86-10-2.52-8.38-9.22-8.38-7.54-10.89,4.19-12.57,4.19-12.57-15.09-44.42-26.82-73.76-15.92-65.37-15.92-65.37l3.35-18.44s1.42-9.92,3.45-24.25l48-13.81,1.26,1.07,4.49,3.82s18.78,49.55,20,61.77,1.92,88-1.27,106.32a125.92,125.92,0,0,0-1.28,33.6s7,19.55,5.75,22-8.94,6.73-5.11,6.73,8.94,1.83,8.3,3.66-2.55,11-2.55,11,3.19,25,6.38,29.94,4.47,15.27,4.47,15.27l1.28,25s-4.12,6.34-14,4.89c0,0-1.91,16.5-4.47,21.39s-27.46,17.72-62,18.94c-17.15.6-27.58-3.28-33.74-7.34C413.56,1469.61,419.64,1460.18,419.64,1460.18Z"/><path d="M190,1395c20.34-6.48,57.33,1.84,57.33,1.84l-14.8-5.54,16.64-2.78L279.7,1370s44.38-.92,49-1.85S289.87,1358,289.87,1358s14.8-26.81,20.34-27.73,17.57-3.7,17.57-3.7l-25-5.55s.92-5.55,3.7-6.47,21.26-5.55,21.26-5.55-12-2.77-24-4.62-1.85-12.94-2.77-28.66-13.87-75.81-13.87-75.81l-26.81-18.49c29.58,9.24,41.6-4.63,41.6-4.63L280.63,1174l2.61-35.76L346,1130l3.84,6.11s2.55,51.94,1.91,55.6.64,55.6,1.28,69,7,50.72,7,50.72l3.19,6.11-3.19,3.66,10.21,4.28s17.89,39.71,14.69,61.71l3.84,1.22s-2.56,18.94-3.84,25c0,0-41.51,8.55-62.59,5.5l-6.38-4.28V1408s-21.08,1.84-29.38,9.17-25.54,7.94-57.48,8.55c-23.53.45-45.32-5.4-55.16-8.51C176,1407.73,180.49,1398,190,1395Z"/><path class="cls-9" d="M414,714.69s11.35,73.58,8.88,80.41S417,817.7,417,817.7s6.91,151.37,7.4,163.46,6.42,49.4,6.42,49.4l7.9,10.52-5.43,24.7,23.65,14.56,5.5,17.56,14.92,13.37s8.64,19.23-5.5,33.44-42.4,29.27-67.53,25.09S376,1147.22,376,1147.22s-.78-24.24-3.14-30.09-10.21-19.23-5.49-24.25-2.36-31.77-2.36-31.77-37.69-31.77-66-119.55l4.71,111.19s6.28,8.36,8.63,10.87,11,7.52,11,7.52,2.35,12.54.78,17.56l8.64,5.85v12.54l12.57,17.56s2.35,26.75-12.57,41-59.68,15.88-77,5-18.84-30.1-18.84-30.1l6.28-16.72-4.71-14.21L241,1092l-7.06-14.21L237,1058.6l-1.57-23.41s-34.56-73.57-37.7-146.3,6.28-111.2,6.28-111.2l-3.14-12.54L208,720.84S295.73,688.46,414,714.69Z"/><path d="M283.09,769.16l2.3,21.2s-22.58,2.77-41.47-5.07l-.46-23.5S265.12,771.93,283.09,769.16Z"/><path class="cls-10" d="M407.21,792.48l.85,19.66s-34.18,5.12-55.54-29.91L372.17,772A59.53,59.53,0,0,0,407.21,792.48Z"/><path class="cls-10" d="M292.24,865S280.93,849.86,269,790.89l-14.17-2.78s13,52.57,21.5,75.64Z"/><path class="cls-11" d="M410.38,725.93l3.12,14.42s-38.59,35.46-71.33,43.26-56.51,5.06-56.51,5.06l-2.34-17.15S356.59,779.71,410.38,725.93Z"/><path class="cls-11" d="M243.18,766.07S213.56,754,205.77,731.38l-2.34,25.34S217.07,776.2,244,782.44Z"/><path class="cls-5" d="M256.68,1144.91c13.74-2.89,34.72-18.8,34.72-18.8l-36.16-9.4s-2.17-17.36,5.06-15.19,27.48,0,27.48,0l10.13-14.46s-19.53-1.45-26.76-1.45-8.68-13.74-8.68-13.74a24.63,24.63,0,0,0,26-14.46l-20.24-17.36S261,941,259.58,917.11s12.12-49.78,12.12-49.78c-8.57-4.29-30-18.85-30-18.85,17.13,9.42,74.53,4.28,74.53,4.28l-21.52,11-7.12,1.19,2.5,33.85,9,42.77,4.71,111.19s6.28,8.36,8.63,10.87,11,7.52,11,7.52,2.35,12.54.78,17.56l8.64,5.85v12.54l12.57,17.56s2.35,26.75-12.57,41-59.68,15.88-77,5a39.46,39.46,0,0,1-8.72-7.46C248,1154,251.08,1146.09,256.68,1144.91Z"/><path class="cls-5" d="M361.66,842.48l-6.86-96,20.13-38.64c12.58,1.6,25.63,3.81,39.09,6.8,0,0,11.35,73.58,8.88,80.41S417,817.7,417,817.7s6.91,151.37,7.4,163.46,6.42,49.4,6.42,49.4l7.9,10.52-5.43,24.7,23.65,14.56,5.5,17.56,14.92,13.37s8.64,19.23-5.5,33.44c-9.66,9.72-25.92,19.81-43.27,23.91.67-18.57,3.12-37.45,3.12-37.45L446.16,1116l-8-11.57-28.2,1.45s8.68-28.93,2.17-26.76-33.27-16.63-33.27-16.63,12.3-1.45,18.8-2.89,12.3-18.8,12.3-18.8-23.87,1.44-32.55-8.68-.72-45.56-.72-45.56l-16.63-73C361.8,895.4,361.66,842.48,361.66,842.48Z"/><path class="cls-4" d="M268.66,374.32,232,402.5S201.59,410,185.7,414.25c0,0-33.58,24.32-42.1,97.29l4,15a87,87,0,0,0-.26,29.53l3.53,7.52s11.92,42.75,12.8,45.09S172,615.3,172,615.3l30.45,51.2,4.2,49.24s1.54,42.84,53.16,51.29,122-5.84,154.19-52.34l1.57-67.45,36.19-39,40.59-169.58,4.41-49.32s-68.5-12.4-110.07-34C349.81,336.23,268.66,374.32,268.66,374.32Z"/><path class="cls-12" d="M373.55,259.43l6.39,24.9,13.17,51.31q3.57,13.92,7.15,27.85l.43-.77-13.88,2.92-34.14,7.23q-21.75,4.65-43.49,9.37-20.79,4.53-41.54,9.22c-9.59,2.19-19.2,4.34-28.7,6.89-.7.18-1.4.37-2.09.57l.48,1.14a112.28,112.28,0,0,0,28-30.82,89.56,89.56,0,0,0,5.35-10.05c.5-1.13,1.18-2.17,1-3.41C270.35,347,266.77,338,261,331.16a44.55,44.55,0,0,0-6.73-6.07,3,3,0,0,1-.9-1.19,6.76,6.76,0,0,1,.35-4.28c1.72-5.16,5.42-9.77,8.84-13.89a160.35,160.35,0,0,1,17.08-17.4,206.69,206.69,0,0,1,22.23-17.21,149.44,149.44,0,0,1,24.46-13.51c7.49-3.18,15.49-5.69,23.65-6.14,6.95-.39,14,.89,19.83,4.91a27.48,27.48,0,0,1,3.9,3.32c.56.58,1.45-.3.89-.88a29.35,29.35,0,0,0-18.4-8.5c-7.74-.75-15.61.88-22.93,3.32a125.68,125.68,0,0,0-24.68,11.73,199.58,199.58,0,0,0-23.29,16.5,188.24,188.24,0,0,0-19.15,17.88c-4.38,4.73-8.69,9.78-11.8,15.46-1.45,2.65-3.75,7.11-1.67,10,.92,1.29,2.55,2,3.73,3a35,35,0,0,1,6.29,7.23,50.58,50.58,0,0,1,6.45,14.59c.44,1.62.82,3.26,1.12,4.91.07.43.11.87.21,1.29,0,.1,0,.17,0,.05a36.68,36.68,0,0,1-2.56,5.64,107.6,107.6,0,0,1-21.77,28.94A110,110,0,0,1,236.7,399c-.53.4-.26,1.35.48,1.14,8.74-2.46,17.64-4.43,26.49-6.47q20.26-4.65,40.59-9.06,21.92-4.79,43.86-9.47,17.89-3.83,35.8-7.6l11.5-2.42c1.76-.37,3.64-.6,5.38-1.13l.23,0a.63.63,0,0,0,.43-.77L388.23,311.6,377,267.75l-2.22-8.65A.63.63,0,0,0,373.55,259.43Z"/><path class="cls-3" d="M374.15,259.26s18.46,67.71,28.05,105c0,0-110.36,114.12-165.19,35.24,28.11-22.38,34.11-43,34.11-43s-2.39-20.88-17.11-30.8S338.55,222.64,374.15,259.26Z"/><path class="cls-13" d="M271.12,356.47s-2.39-20.88-17.11-30.8c-11-7.44,41.9-61.53,84.11-72.83a136.63,136.63,0,0,1,23.06-1,27.15,27.15,0,0,1,13,7.44s18.46,67.71,28.05,105c0,0-21.62,23.2-40.4,34-9.44-13.33-34.52-49.66-34.52-49.66s-29.34,17.3-56.27,12C271.16,358,271.12,356.47,271.12,356.47Z"/><path class="cls-14" d="M306.35,349.27l5.52-13.42S295.09,350.47,280,349.27c-4.18-.33-7.63-.48-10.62-.65-2.08-7-6.48-17-15.36-22.95-5-3.38,3.17-16.36,17.53-30.6,33.93-1.22,79.64-2.13,79.64-2.13S344.23,334.65,306.35,349.27Z"/><path class="cls-15" d="M286.85,137.39s-13.82-.75-22.62,5.53-8.79,18.84-6.78,28.64S286.85,137.39,286.85,137.39Z"/><path class="cls-14" d="M361.18,251.82a27.15,27.15,0,0,1,13,7.44s-1.51,13-2.44,30.77a29.4,29.4,0,0,1-13.57-6.27s-3.73,27.13-26.14,29.49-13.37-47.38-13.37-48.75a30.33,30.33,0,0,1,2.16-5,99.2,99.2,0,0,1,17.33-6.62A136.63,136.63,0,0,1,361.18,251.82Z"/><path class="cls-12" d="M377.63,213.47l2.65-9.77-.52.52c4-.88,7.65-4.17,10.08-7.31a33.69,33.69,0,0,0,5.86-13,53,53,0,0,0,1.06-18.24,50.6,50.6,0,0,0-14-29.42,51.9,51.9,0,0,0-31.65-14.86,127.64,127.64,0,0,0-23.94-.15,115.92,115.92,0,0,0-26.47,5.16A88.42,88.42,0,0,0,275,139.6a81.32,81.32,0,0,0-21.28,24,96.91,96.91,0,0,0-7.67,16.73,7,7,0,0,0-.63,2.25,14,14,0,0,0,.16,1.59,60.92,60.92,0,0,0,1.25,6.84,70.51,70.51,0,0,0,3.43,10.51,7.49,7.49,0,0,1,.79,2.58,13.69,13.69,0,0,1-.45,4.18c-.7,2.67-2.13,5.13-3.14,7.69a32,32,0,0,0-2.29,9.28A21.77,21.77,0,0,0,247,236c.47,1.05.66,1.05.64,2.07-.06,2.49-.17,5-.3,7.46a239.07,239.07,0,0,1-3.05,28.12c-1.59,9-3.64,18.63-8.91,26.27a15.87,15.87,0,0,0-3,11.39,17.32,17.32,0,0,0,6,10c8.76,7.74,21.7,9.95,33,10.07a117.08,117.08,0,0,0,20.55-1.82,129.53,129.53,0,0,0,19.4-4.76c11.23-3.73,22.47-9.21,30.77-17.84a38.49,38.49,0,0,0,8.38-12.86,43.2,43.2,0,0,0,2-8.41c.63-3.72,1.31-7.43,2.08-11.12,1.93-9.25,4.33-18.78,9.67-26.71,1-1.51,2.18-2.89,3.28-4.33a31.55,31.55,0,0,0,3.67-6.47,86.77,86.77,0,0,0,4.82-14.83c.6-2.49,1.16-5,1.58-7.52.16-.94-1.28-1.35-1.44-.4a91.57,91.57,0,0,1-6.38,22.27,29.14,29.14,0,0,1-3.66,6.33c-1.07,1.35-2.14,2.68-3.11,4.11a49.89,49.89,0,0,0-5.15,10.08,104.23,104.23,0,0,0-4.29,15.05c-.76,3.45-1.43,6.93-2,10.41a73.47,73.47,0,0,1-1.86,9.2c-3.25,10.43-11.74,18.2-20.91,23.62-10.86,6.42-23.21,10.21-35.57,12.44-13.14,2.36-27.06,3.35-40-.48-7.91-2.34-18.43-7.55-19.42-16.88-.45-4.24,1.49-7.57,3.69-11a46.15,46.15,0,0,0,5-11.55c2.92-9.46,4.32-19.39,5.32-29.22q1-10.14,1.32-20.34a8.42,8.42,0,0,0,0-1.23,4.58,4.58,0,0,0-.56-1.26,20.61,20.61,0,0,1-1.19-3.08,20.1,20.1,0,0,1-.81-5.71,28.43,28.43,0,0,1,2-9.76c.87-2.37,2.08-4.6,3-7a14.06,14.06,0,0,0,.91-7.39,24.52,24.52,0,0,0-1.43-3.6q-1-2.62-1.8-5.32a65.56,65.56,0,0,1-1.89-8.21,13.52,13.52,0,0,1-.4-3.46,19.35,19.35,0,0,1,1.35-3.75q.87-2.3,1.84-4.55,1.77-4.08,3.92-8a81.81,81.81,0,0,1,9.49-13.7,79.57,79.57,0,0,1,23.29-18.49,97.48,97.48,0,0,1,26-9.1,126.22,126.22,0,0,1,24.9-2.48c9.57,0,19.26.6,28.2,4.32a48.37,48.37,0,0,1,24.31,22.46,50.51,50.51,0,0,1,4.24,33.58c-1.6,7.44-5.27,15.14-12.22,18.91a10.64,10.64,0,0,1-2.86,1.17.76.76,0,0,0-.53.53l-2.64,9.77a.75.75,0,0,0,1.44.4Z"/><path class="cls-3" d="M376.91,213.27l2.65-9.77s15.07-3.26,16.7-28.72S380,124.47,349.62,122s-84.52,3.26-103.46,60.28a63,63,0,0,0,5.5,20.57,14.08,14.08,0,0,1-1.23,8.15c-2,4.68-7.94,15.27-2,26.07,0,0-.61,46.64-12.22,62.93s9.57,32.79,42.56,30.35,68.44-16.7,72.71-42.77,8.15-35.64,15.07-44,10.39-29.13,10.39-29.13"/><path class="cls-16" d="M249.41,326.82c-14.45-5.5-20.79-16.18-13.23-26.79,11.61-16.29,12.22-62.93,12.22-62.93-5.91-10.8,0-21.39,2-26.07a14.08,14.08,0,0,0,1.23-8.15,63,63,0,0,1-5.5-20.57c9.18-27.64,26.63-43.22,45.65-51.66-8.54,5.34-17.4,11.67-23.61,18.13-16.13,16.75-17.79,23.37-18.2,28.54s-1.66,18.41,3.51,26.89c0,0,.21,5.37-3.51,12s.62,0,.62,0-1.45,36.61-1.66,42S257,265,257,265a15.44,15.44,0,0,1-5.7-.66l2.8,1.07s-6.2,0-5.38,4.76c0,0,.22,3.69,5.59,5.47,0,0-4.14,1.56-6.62-.3,0,0-1.24,8.48-2.48,11.17,0,0,7.86-.42,13.65,1.44,0,0-12.82-3.51-20.27,10.55C233.1,309,243.6,321.18,249.41,326.82Z"/><path class="cls-17" d="M253.28,185.74c0-.47,13.22-10.15,23.2-4s1.39,13.52-8,16.29S253.28,185.74,253.28,185.74Z"/><path d="M253.06,198.23c0,8.38,6.13,15.17,13.68,15.17s13.67-6.79,13.67-15.17-6.12-15.16-13.67-15.16S253.06,189.86,253.06,198.23Z"/><path class="cls-18" d="M253.06,200.7c0,8.38,6.13,15.17,13.68,15.17s13.67-6.79,13.67-15.17-6.12-15.17-13.67-15.17S253.06,192.33,253.06,200.7Z"/><path d="M258.73,198.21a9.2,9.2,0,1,0,9.19-9.2A9.18,9.18,0,0,0,258.73,198.21Z"/><path class="cls-18" d="M261,195.31a3.81,3.81,0,1,0,3.81-3.81A3.82,3.82,0,0,0,261,195.31Z"/><path class="cls-19" d="M279.46,195.17c-3-3.13-8.92-7.1-16.34-4.2a19.89,19.89,0,0,0-10,8.77c.45-7.93,6.37-14.21,13.63-14.21C272.53,185.53,277.46,189.53,279.46,195.17Z"/><path d="M270.39,166.43c-.59-5.24-4.74-7.5-9.82-5s-20.29,12.79-19,20.18,3.42,14.56,7.72,14.68c0,0,9.6-8.06,17.1-10.7,6.58-2.33,11-1.55,10.92-2.76S271.27,174.26,270.39,166.43Z"/><path class="cls-20" d="M250.64,195.26c-.82.65-1.32,1.07-1.32,1.07-4.3-.12-6.4-7.29-7.72-14.68s13.9-17.64,19-20.18c4-2,7.4-1,9,2-2.51-1.06-6.17-1.51-10.71.93-9,4.86-15.79,14.75-13.19,20.65C247.34,189,249.41,193,250.64,195.26Z"/><path class="cls-3" d="M279,147.14a67.49,67.49,0,0,0-8,12.68c-3.68,7.57,6.75,23.53,6.75,23.53s-2.05,19.23-8.8,23.93c0,0-30.45,4.3-31.89,15.14S243,248,254.47,251.47c0,0,37.51,10.91,55.52-4.36S323.8,154.62,279,147.14Z"/><path class="cls-13" d="M294.73,152.64s-15.18-1.16-19.62,9.11,7,21.48,7,21.48-2,22.2-8.34,28.74c0,0-20.2.67-28.56,8.63-6.69,6.37,1,24.37,9.25,30.87,0,0,27.16.23,41.42-10.07,0,0,10.05-2.12,7.25-16.37s-21.72-7.94-29.89,4.21c0,0,.93-9.34,5.83-14.25s16.12-12.84,34.33-4.9S322.52,154.75,294.73,152.64Z"/><path class="cls-12" d="M295.89,241.4c4.91-1.69,9.13-5.54,8.51-11.78-.86-8.67-5-20.26-13.1-20.26s-14,7.65-14,7.65,10.25-8.45,15.77-6.15,9.38,8.88,10.09,19.61C303.69,238,295.89,241.4,295.89,241.4Z"/><path class="cls-12" d="M295.47,240s-9.86-.78-16.44,3.12-.87,5.53,5.19,3.46c0,0-6,2.68-8.65.34S283,237.87,295.47,240Z"/><path class="cls-13" d="M250.16,304.09c1.6-13.48,28.55-9.63,28.55-9.63s8-5.45,2.89-14.43,6.09-10.91,6.09-10.91c14.12-2.25,28.88-10.59,32.41-17.65s-1.93-9.94-1.93-9.94a9.51,9.51,0,0,1,10.91,1.28c-5.45-7.7-17.65-5.77-9.62-18.29S352.82,203,352.82,203c-14.76-2.25-23.74,4.17-23.74,4.17l-9-23.1S330,128.28,349,125.39a56.82,56.82,0,0,1,16.4.25,49.24,49.24,0,0,1,30.89,49.14c-1.63,25.46-16.7,28.72-16.7,28.72l-2.65,9.77v1.22s-3.46,20.78-10.39,29.13-10.79,17.92-15.07,44-39.71,40.32-72.71,42.77c-13.18,1-24.47-1.08-32.54-4.93C246.94,318.52,249.39,310.53,250.16,304.09Z"/><path class="cls-12" d="M331.29,250.71s.2-9.46-12.13-9.05C319.16,241.66,332.31,235.91,331.29,250.71Z"/><path class="cls-12" d="M328.41,244.54s-12.75,21.17-39.06,24.87-42.55-6.78-42.55-6.78,15.42,8,40.91,4.73,39.67-24.26,39.67-24.26Z"/><path class="cls-13" d="M349.62,122a52,52,0,0,1,25.54,8.84c-1.07-.07-2.64-.34-2.64-.34-23.84-7.08-35.42-3.54-49.22,7.05-14,10.76-29.26,2-29.26,2,.85-5.39,5.1-9.89,10.3-13.43C320.72,121.4,337.18,121,349.62,122Z"/><g class="cls-21"><path class="cls-22" d="M242.77,229.53l.06-.08a1.37,1.37,0,0,1,1-1.17c9.48-8.87,29.28,11.92,29.28,11.92s3.16-7.39,16.45-10.76c10-2.54,13,1.15,13.8,3.12h0c.05.14,1.68,4.81-6.43,14s-25.51,19.4-25.51,19.4-10.76,1.27-13.08-2.32-15-24-15.61-33.32a2.86,2.86,0,0,1,0-.52A1.81,1.81,0,0,1,242.77,229.53Z"/><path class="cls-22" d="M304.15,232.81l-.75-.24h0Z"/></g><path class="cls-20" d="M294,139.54s-18.06-18-1.67-32.22,33.68-17.76,54.54-3.49c16.68,11.41,16.68,16.68,25.74,22.94,12.61,8.71,12.22,4.16,20.27,11.11s22.22,50-11.39,68.05l-1.11,4.72s-17.22,13.89-26.66,47.78l-9.45-6.94s15.84-37.5,17.22-51.12,0-21.94-11.11-37.49,15-31.11,28.89-24.45c0,0-6.41-19.2-46.11-15.83C303.76,125.1,294,139.54,294,139.54Z"/><path class="cls-12" d="M250.59,266.28s-2.34,5.63,1.88,7.73,19,4.69,31.16,1.64c0,0-14.68,4-29.29,0C244,272.84,250.59,266.28,250.59,266.28Z"/><path class="cls-16" d="M282.12,183.23s-3.68,25.64-8.06,28.77c0,0-23.51.73-30.16,10.77,0,0-3.05,5.08.56,14.44,0,0-5-7.44-.9-15.45s25.28-11,30-10.59C273.58,211.17,279.22,204,282.12,183.23Z"/><path class="cls-16" d="M237.48,222.42c1.3-9.79,26.25-14.24,31.08-15,.79.2,1.38.37,1.38.37l4.41,3.66s-23.07.25-30.64,11.09c0,0-2.54,7.81,1.13,14.68a27.94,27.94,0,0,1-4.08,1.39C238.08,233.38,236.81,227.48,237.48,222.42Z"/><path class="cls-16" d="M270.76,161.86c.36-.37,7.16-18.41,19.77-26.48l3.51,4.16s-8.14,7.26-12,13.16c0,0-8.79,6.53-7.79,14.14,0,0-2.59-.35-3,.36A13.74,13.74,0,0,1,270.76,161.86Z"/><path class="cls-12" d="M309.48,134.35a53.25,53.25,0,0,0-13.84,15.59S297.48,142.14,309.48,134.35Z"/><path class="cls-16" d="M300.89,142s-5.56,4.64-5.87,9.75c0,0,5.1-3.25,14.38-2.94l2.79-6.35S304.92,143.66,300.89,142Z"/><path class="cls-12" d="M279,147.14a67.49,67.49,0,0,0-8,12.68c-3.68,7.57,6.75,23.53,6.75,23.53s-2.05,19.23-8.8,23.93c0,0-30.45,4.3-31.89,15.14S243,248,254.47,251.47c0,0-16.9-9.83-16.7-27.4.14-12.4,32.17-15.86,32.17-15.86s6.33-6.1,8.51-25.11c0,0-9.26-15.8-7.28-21.31C271.17,161.79,271.4,159.07,279,147.14Z"/><path class="cls-17" d="M323.82,184.05c-5.54-4.15-18.6-5.69-25.05-2.16s-9.38,17.68,5.22,20.9S323.82,184.05,323.82,184.05Z"/><path class="cls-17" d="M244.89,324.79c32,5.87,68.69-3.86,87.08-21,19.25-18,12.4-59,12.4-78.28s21-18.83,21-18.83,5.11,2.21,11.93,5.32l-.35,1.29v1.22s-3.46,20.78-10.39,29.13-10.79,17.92-15.07,44-39.71,40.32-72.71,42.77C264.83,331.41,253,329.06,244.89,324.79Z"/><path class="cls-23" d="M377.3,137.66l1.25.52h.15l.61.25-.12-.3c1.23-.14,3.62-.65,1.77-2.36-1.32-1.22.62-2.44,4.32-2.52,2.14.72,4.05,1.53,7.64,4.63a19.2,19.2,0,0,1,3.87,5.38c.23,3.06.43,6.36.13,6.05-.56-.55-24.86-10.2-32.09-3.34-.92.87-1.84,1.69-2.75,2.46a35.9,35.9,0,0,0-12.23-.18C354.89,140.08,368,134.76,377.3,137.66Z"/><path class="cls-24" d="M320.85,99.72c5.61-2.73,12.18-2.23,18.34-.45a64.18,64.18,0,0,1,7.72,4.56c16.68,11.41,16.68,16.68,25.74,22.94.94.65,1.8,1.22,2.61,1.73-1.21.19-2.61.48-4,.81-6.55-4.4-18.09-8.4-38-6.71-25.2,2.14-35.95,13-38.52,16.12C284,120.9,305.6,107.14,320.85,99.72Z"/><path class="cls-24" d="M347.68,254c1.69-7.11,5.8-24,7.81-28.05,2.57-5.13,16.26-32.08,9.42-51.33s-13.26-20.53-3.43-29.09S394,147.63,394,147.63c1.81-2.47.81-7.49-3.24-11.51.66.49,1.37,1.07,2.17,1.76,8.06,6.94,22.22,50-11.39,68.05l-1.11,4.72s-17.22,13.89-26.66,47.78Z"/><path class="cls-24" d="M347.68,254c1.69-7.11,5.8-24,7.81-28.05,2.57-5.13,16.26-32.08,9.42-51.33s-13.26-20.53-3.43-29.09S394,147.63,394,147.63c1.81-2.47.81-7.49-3.24-11.51.66.49,1.37,1.07,2.17,1.76,8.06,6.94,22.22,50-11.39,68.05l-1.11,4.72s-17.22,13.89-26.66,47.78Z"/><path class="cls-25" d="M357.57,174.45a86.43,86.43,0,0,0-7.15-11.57c-2.93-4.11-3.25-8.22-1.9-11.92,13.18-5.59,21.47,8.3,30.82,11.48,9.79,3.32.2-5.49,10.58-3.14,9.11,2.07,12.18,11.53,12.79,13.8a44.53,44.53,0,0,1-2.3,11.22c-7.1-4.73-12.72,1.39-21.46-7C371.17,169.85,361.31,172.88,357.57,174.45Z"/><path class="cls-26" d="M294,139.54s-10.8-15.17-3.5-25.89,31.15-21.8,54.2-11.07c0,0-39.49-13.43-54.08,13.58C286.09,124.6,294,139.54,294,139.54Z"/><path class="cls-26" d="M294,139.54s-10.11-17.82,7.1-29,46.64-7.4,59.72,5c0,0-25.34-19.85-55.42-6.71C285,117.76,294,139.54,294,139.54Z"/><path class="cls-26" d="M314.57,126s23.4-24.1,47.5-9.12C362.07,116.9,338.83,98.65,314.57,126Z"/><path class="cls-27" d="M357.43,149.92c8.41,1.63,14.85,10.12,21.91,12.52,9.79,3.32.2-5.49,10.58-3.14,9.11,2.07,12.18,11.53,12.79,13.8-.07.93-.17,1.86-.29,2.79,0,.07,0,.14,0,.2-.12.89-.27,1.77-.45,2.65v0a42.42,42.42,0,0,1-1.52,5.56c-7.1-4.73-12.72,1.39-21.46-7a17.43,17.43,0,0,0-14.75-4.65C359,158.82,354.35,155,357.43,149.92Z"/><path d="M300.5,194.18c0,9,7.59,16.25,16.95,16.25s16.95-7.28,16.95-16.25-7.59-16.25-16.95-16.25S300.5,185.21,300.5,194.18Z"/><path class="cls-28" d="M301.89,196.38c0,8.38,7.08,15.17,15.82,15.17s15.82-6.79,15.82-15.17-7.08-15.16-15.82-15.16S301.89,188,301.89,196.38Z"/><path class="cls-18" d="M303.49,194.69c0,7.27,6.14,13.15,13.71,13.15s13.72-5.88,13.72-13.15-6.14-13.15-13.72-13.15S303.49,187.43,303.49,194.69Z"/><path d="M311.85,196a9.83,9.83,0,1,0,9.83-9.82A9.83,9.83,0,0,0,311.85,196Z"/><path class="cls-18" d="M314.29,192.87a4.07,4.07,0,1,0,4.07-4.07A4.07,4.07,0,0,0,314.29,192.87Z"/><path class="cls-19" d="M318.68,185.93c-9.86.16-14.5,4.74-16.62,8.38a15.94,15.94,0,0,1,31-1.67C330.78,189.12,326.57,185.81,318.68,185.93Z"/><path d="M338.33,186c5.66-3.14,7.64-16.13,1.55-24.38-7.17-9.71-20.93-15.45-41.7-11.47-10.36,2-6,32.11,3.87,32,8.49-.11,15.11-3.31,22.61-1.33S335.36,187.61,338.33,186Z"/><path class="cls-20" d="M298.18,150.11c12.41-2.38,22.3-1.27,29.79,2.07-5.54-1.16-27.33-5.13-30.81,2.88-2.94,6.79-1.39,20.3,5,27h-.12C292.21,182.22,287.82,152.09,298.18,150.11Z"/><path class="cls-16" d="M341.21,203.07s-16.36,2.5-25,13c0,0-6.29,12.11.93,17.47C318.05,229.06,313.32,215.93,341.21,203.07Z"/><path class="cls-12" d="M341.21,203.07s-11.16,2.58-19.74,9.83l-4.54,1.8S323.25,206.1,341.21,203.07Z"/><path class="cls-3" d="M368.57,225.08c5-6.76,11.92-16.49,18.28-19.28s26.83,13.71,17.29,33.39-28.81,32.39-35.57,30.6-12.63-4-14.81-11.36"/><path class="cls-29" d="M368.57,225.08c5-6.76,11.92-16.49,18.28-19.28s26.83,13.71,17.29,33.39-28.81,32.39-35.57,30.6-12.63-4-14.81-11.36"/><path class="cls-13" d="M353.76,258.43l14.81-33.35c5-6.76,11.92-16.49,18.28-19.28,1.67-.73,4.31-.12,7.13,1.51-3.82,4.6-7.42,11.68-4.1,20.1,0,0,5.27-6,9.29-5.71,3.26.21,7.36,5.21,6.05,14.87a25,25,0,0,1-1.08,2.62c-9.54,19.67-28.81,32.39-35.57,30.6S355.94,265.78,353.76,258.43Z"/><path class="cls-14" d="M374.58,249.72s.23-8.42,5.26-13.33S390.6,226,392.71,224.81s9.12-6.67,11.92,2.57-7.6,22.45-24.2,21.17Z"/><path d="M405.13,231.24s.2-9.34-6-9.54-23.84,15.5-26.43,26.23,7.95,7.75,11.13,2.38,3.38-14.3-4.57-11.52c0,0,8.94-10.93,17.49-15.3S405.13,231.24,405.13,231.24Z"/><path class="cls-23" d="M292.37,107.32c13.73-11.87,28.1-16.31,44.66-9l-6.18-.51c-12.41-1-27.77.22-38,12.31s1.2,29.47,1.2,29.47S276,121.49,292.37,107.32Z"/><path class="cls-5" d="M167.93,525.73c23.1-1.21,81.17-12.17,81.17-12.17C295.1,534,365.64,532,365.64,532c27-10.82,102.56-55,120-65.31l-33.89,141.6-36.19,39L414,714.69c-13.6,19.63-34,33.5-56.92,42.36,5.86-7.77,10.19-13.87,10.58-16.56,2-14.31,8.18-84.85,8.18-84.85l-24.54-32.71,36.8-12.26c26.58-11.25,19.42-60.31,19.42-60.31l-37.82,2-119.6-26.58-82.19,10.86-21.09-10.95-2.43-10.54C144.56,514.73,167.93,525.73,167.93,525.73Z"/><path class="cls-5" d="M333.53,619.91s-89.93-38.58-169.89-11.19C163.64,608.72,228.14,541.78,333.53,619.91Z"/><path class="cls-5" d="M234.09,597.35s7.29,38.77,23.71,52.91c0,0-2.28,78.91,7.3,116.76l-8.21-2.28S245,703.62,251,653.45C251,653.45,230,620.16,234.09,597.35Z"/><path class="cls-3" d="M452.09,848.08c-24.26,27.07-22.94,25.32-26.1,36.79-2.08,7.54.39,17,6.72,22.94a11.68,11.68,0,0,1,8.7,6.33s5.52,14.12,6.73,17.4,14.16,7.7,19,4.42,18.22-7.75,18.22-7.75,12.38-5.63,17.84-6.45,12.14-11.82,12.14-11.82,5.73,1.8,11-6.44c7.36-11.44-3-64-3-64l43.54-137.58c-2.33-19-18.2-62.62-18.2-62.62s2.14-34-.2-48.12c4-4,10.47-17,10.47-17s10.27-23.4,11.2-37.31-10.74-44.28-10.74-44.28l.47-38.58c-18.21-41.75-57.42-70.84-57.42-70.84l-36.41-2.53c-23.34,12-61.15,55-56.48,82.22s25.2,67.68,25.2,67.68-5.13,52.5.47,76.53,27.54,62,27.54,62-1.4,53.13.94,60.72,12.13,32.89,12.13,32.89l4.32,54.63S462.38,836.61,452.09,848.08Z"/><path class="cls-4" d="M434.78,530.47s-20.54-40.48-25.2-67.68,33.14-70.2,56.48-82.22l36.41,2.53s39.21,29.09,57.42,70.84l-.47,38.58s.22.56.58,1.55c-26.47,18-70.23,41-126,45.75C434.43,534.08,434.78,530.47,434.78,530.47Z"/><path class="cls-5" d="M413.91,460.42l-4.5-6.22a30.7,30.7,0,0,0,.17,8.59c4.66,27.2,25.2,67.68,25.2,67.68s40.14,10.21,61.22,11.46c0,0,16.1,43.58,8.34,61.14s-34.94,27.34-34.94,27.34l-35.19-29c.3,2,.64,3.85,1,5.56,5.6,24,27.54,62,27.54,62s0,.77-.05,2.12l8.85,2.5,48.81-38.88,14.42,42.64s-3,57-24.56,122.15l-2.88,26.05L482.9,907s-17.48,29.21-37.8,16.45c1,6.58,2.34,6.24,3,8.13,1.21,3.28,14.16,7.7,19,4.42s18.22-7.75,18.22-7.75,12.94-4.82,17.84-6.45c5.23-1.75,12.14-11.82,12.14-11.82a11.06,11.06,0,0,0,11-6.44c6.1-12.15-3-64-3-64l43.54-137.58c-2.33-19-18.2-62.62-18.2-62.62s2.14-34-.2-48.12c4-4,10.47-17,10.47-17s10.27-23.4,11.2-37.31-10.74-44.28-10.74-44.28l.47-38.58a161.78,161.78,0,0,0-21.8-35.45l14.48,24.37L514.86,493S478.53,498.73,413.91,460.42Z"/><path class="cls-30" d="M414.14,715.88s-40.56,65.37-152.4,51.19c0,0-44.9-5.9-54.35-43.71,0,0-2,39.78,56.32,47.26S381.85,763.13,414.14,715.88Z"/><path class="cls-31" d="M282.48,773.45s-24.62.59-38.12-5.76L246,778.21l4-5.76S262.63,776.23,282.48,773.45Z"/><path class="cls-32" d="M512.13,489.87S461.2,486,409.41,454.2c0,0,4.78-37.13,54.47-67.1,0,0,36.64,12.1,49.7,49.82l-45-27.57S502,434.74,512.13,489.87Z"/><path class="cls-32" d="M193.68,413.7S171.2,413,158.86,426s-30.46,57.3-30.46,57.3l17.41,13.06S153.79,439.09,193.68,413.7Z"/><path class="cls-32" d="M229.23,408.63s-62.39,12.33-82,103c0,0,61.66,3.63,103-5.8,0,0,1.45-35.54,16.69-57.31,0,0-13.78,39.9-10.16,61.66,0,0,55.86,20.31,107.36,14.51l42.8-29s-3.63-40.62,15.23-68.18c0,0-22.49-18.14-34.09-21.76,0,0-64.56,27.56-118.24,40.62C269.85,446.35,247.36,434,229.23,408.63Z"/><path class="cls-32" d="M361.21,558.28s-2.2,37.34-17.57,57.84c0,0-54.18-38.81-103.24-44.66l1.47-22s-11,9.52-12.45,24.16c0,0-49.06,3.66-60.77,22.7,0,0-6.59-31.48-7.32-49.79l21.23,5.86L247.72,540l87.13,32.22S351.69,577.31,361.21,558.28Z"/><path class="cls-32" d="M242.6,607.33s8.05,28.56,24.16,43.2c0,0,30.75,11,55.65,5.13,0,0-40.27-16.11-47.59-43.93C274.82,611.73,249.19,603.67,242.6,607.33Z"/><path class="cls-32" d="M226.49,608.8s5.13,27.82,16.11,41c0,0-22.7,13.18-33.68,5.86s-22-38.81-22-38.81S213.31,614.66,226.49,608.8Z"/><path class="cls-33" d="M479.38,548.39s-33.34,1.86-40.29-4.63c0,0-10.19,26.4-1.85,54.18,0,0,25.93,18.53,43.53,21.77C480.77,619.71,498.65,586.31,479.38,548.39Z"/><path class="cls-33" d="M271.23,364.08l4.92,36.25s25.06-29.09,38.93-42.07C315.08,358.26,288.23,375.27,271.23,364.08Z"/><polygon class="cls-5" points="183.65 906.67 175.63 918.05 170.15 912.15 173.95 919.32 173.58 930.51 177.32 922.69 178.17 920.16 183.65 906.67"/><polygon class="cls-5" points="156.45 925.7 140.45 928.05 131.04 916.28 123.98 914.87 118.34 904.05 112.22 902.64 113.63 896.05 118.81 900.29 124.92 912.52 132.45 913.93 142.8 925.7 156.45 925.7"/><path class="cls-5" d="M515.35,909.94l-14.44,10-8.57-4.08-10.2,10.61-7.75-3.67s-8.16,8.57-11.84,6.94-12.65-14.29-12.65-14.29L463.37,924l11.42-8.16,8.57,4.08,8.17-8.57,12.24,4.9Z"/><path class="cls-5" d="M449.72,904.25a8.87,8.87,0,0,0-.7-7.88,15.43,15.43,0,0,0-4.84-4.78l2.38,5.54-6.33,4.35h7.12s-2,5.93-3.17,6.33S449.72,904.25,449.72,904.25Z"/><path class="cls-33" d="M452.09,848.08c10.29-11.47,28.09-30.85,28.09-30.85l-4.32-54.63s-9.8-25.3-12.13-32.89c-1.7-5.52-1.42-35.16-1.14-50.89l15,9.16L511,657.14,525.44,688s-23.92,118.95-25.81,123.36-12,35.88-12,35.88-13.21,44-18.88,45.31l.63-32.73S439.21,878.06,436.69,885c-1.19,3.28-4.22-2.76-6.8-10.77C432.63,869.71,438.11,863.69,452.09,848.08Z"/><path class="cls-33" d="M122.15,735.54c1.47-20.46,16.4-56.33,19.54-63.68,5.29,5.58,12.61,11.09,20.59,10.46,0,0-18.25,75.52-18.25,72.38s-3.78-20.77-3.78-20.77-6.92,95-6.92,98.18,13.85,52.24,13.85,52.24l-5,34s-8.81-6.3-8.81-8.19.63-23.91.63-23.91-6.29,23.91-6.92,21.4-5.67-12-5.67-12l2.52-22s-4,2.18-9.61,5.18c3.09-24.27,7.64-54.14,7.64-54.14S120.5,758.4,122.15,735.54Z"/><path class="cls-5" d="M559.16,496.36s1,8.34-11.47,25c0,0,2.6,17.36-3.12,48,0,0,4.43-24.49-1.18-42,0,0-20.19,12.27-36.35,12.27C507,539.62,541.44,533.89,559.16,496.36Z"/><path class="cls-34" d="M376.91,214.07c.93-1,1.7-1.77,2.29-2.32-.77.81-1.54,1.65-2.29,2.53Z"/><path class="cls-35" d="M127.51,879.54c-.78,4.41-1.56,30.37,1.56,32.7s14.53,15.83,14.79,17.39c.15.87.77,6.94,1.3,12.17,5.19,4.14,8.89,6.93,8.89,6.93l1.56-.54c4.25-1.15,7.65-2.85,10.14-5.88.07.74.15,1.47.23,2.21l8.3-2.77-.7-11.23,15.44-4.1L197.84,908s0-.27.07-.72a85.54,85.54,0,0,0-.13-15.87,52.22,52.22,0,0,0-.91-5.69,22.64,22.64,0,0,0-1.59-5.9h0a5.55,5.55,0,0,0-.89-1.39c-8.26-8.87-20.25-32.77-20.25-32.77l-13.25-22.09s26.64-31.82,40.07-43h0l.74-.6c.32-.26.65-.52,1-.75a7,7,0,0,0,.66-.59l.05,0q.31-.32.63-.69c-.19.82-.92,4.06-1.83,9.64-2.57,15.68-6.62,49.92-4.4,101.33,3.14,72.73,37.7,146.3,37.7,146.3L237,1058.6l-3.14,19.23L241,1092l-2.35,17.56,4.71,14.21L237,1140.53a28.31,28.31,0,0,0,.63,3.7l-3.41.45-1.28,5.49s54.93,158.25,54.93,161.92-4.47,7.33.64,11.61a9.19,9.19,0,0,1,3.19,9.77s-7,6.72-12.13,12.83S226,1386,223.4,1387.24s-22.35-3.06-37,.61-14.69,15.28-14.69,15.28l-.1.38-3.09,11.83s.9.35,2.53.9c.82.28,1.81.61,3,1l.12,0,1.84.57h0c.65.2,1.35.41,2.07.61l.41.12,2,.57.32.09,2.43.65.58.14,2.18.55.59.14c.89.22,1.8.43,2.73.64l.73.16c.76.17,1.54.34,2.34.5l.8.17,3,.59.78.15,2.57.45.92.15c1.08.18,2.17.35,3.28.51l.75.11c.93.13,1.87.26,2.83.37l1,.13c1.17.14,2.34.27,3.54.38l.58.06,3.17.26,1,.07c1.25.09,2.5.16,3.76.22h.35c1.16,0,2.34.08,3.51.1h1c1.3,0,2.6,0,3.91,0,31.94-.61,49.18-1.22,57.48-8.55S316,1408,316,1408v6.72l6.38,4.28a90.35,90.35,0,0,0,15.66.56c3.21-10.54,11.93-19.29,9-31.15,0-3.76-2.51-8.78-7.53-8.78,3.76-10,3.76-21.32,1.26-31.35-12.54-61.45-8.78-120.39-18.81-181.84-1.26-11.28-17.56-20.06-15.05-37.62,0-5-7.53-7.52-8.78-12.54-3.76-7.52,10-16.3,3.76-21.32-8.78-8.78-16.3-22.57-16.3-33.86,1.25-3.76-7.53-8.78-8.78-15-2.51-8.78,1.25-18.81,2.51-27.59,1.25-17.55-6.27-35.11-6.27-51.41,1.25-28.85,2.51-57.69,12.54-85.28,5.47,28.74,13.44,56.49,22.08,84.08,26.75,69.42,57.39,95.25,57.39,95.25s7.07,26.75,2.36,31.77,3.14,18.39,5.49,24.25,3.14,30.09,3.14,30.09a22.59,22.59,0,0,0,2.72,6.74c4.57,17.59,19.35,71.92,33.69,95.8,17.25,28.72,22.36,67.83,23,70.27s-1.92,6.72-.64,9.17,3.19,5.49,1.27,9.77,2.56,4.28,2.56,4.28l3.83,8.55s-4.47,4.89-5.75,9.78,3.2,6.72,3.84,8.55-.64,7.33-.64,20.78-17.25,33.6-26.19,42.15-8,26.44-8,26.44l-4.47,1.22-.63,8.55s1.86,4.28,8.09,8.39l0,0c.38.25.76.49,1.17.73l.08,0c.39.23.8.47,1.22.7l.18.09,1.23.64.25.11,1.28.6.32.13c.43.18.86.37,1.32.54.13.06.27.1.41.15.44.17.88.34,1.34.5l.53.16,1.35.44.64.17c.45.13.9.26,1.37.38l.75.18c.45.11.91.22,1.39.32l.85.17,1.41.27,1,.15,1.43.22,1.11.13c.48,0,.95.12,1.44.16l1.25.11,1.44.11,1.39.07c.49,0,.95,0,1.45.06s1.08,0,1.63,0l1.36,0h.49q.65-12.55,1.26-25.15c0-2.51,5-7.52,8.78-10,8.78-3.76,17.56-8.78,23.83-16.3,7.52-12.54,5-27.59,7.52-38.88,10-61.45-5-119.14-17.56-181.84-3.76-18.81-3.76-47.65-16.3-62.7-5-7.52,8.78-26.34,5-40.13-3.77-11.29-23.83-13.79-28.85-22.57s-13.79-17.56-23.82-21.32c3.76-7.53,12.54-13.8,8.78-21.32-5-8.78-13.8-16.3-26.34-17.56,3.76-32.6-1.25-67.72-11.29-100.32-3.76-15,5-35.12,5-53.93,1.25-36.36,5-80.26-20.06-110.35,25.08-36.37,46.4-91.55,13.79-129.17,21.32-12.54,41.38-28.84,46.4-53.92,10,11.28,23.83,26.33,22.57,37.62,0,1.75,0,3.5.06,5.25l1.1-1.19c8.42,22.39,23.07,47.75,23.07,47.75s0,.15,0,.41,0,.93,0,1.71h0c-.1,4.55-.34,15.8-.36,27.31v4c0,.62,0,1.23,0,1.85v.07c0,.62,0,1.23,0,1.84v.18c0,.55,0,1.1,0,1.65,0,.07,0,.14,0,.21,0,.58,0,1.16,0,1.74v.2c0,.5,0,1,0,1.47,0,.12,0,.24,0,.37l0,1.62v.09c0,.5,0,1,0,1.48v.35c0,1,.06,2,.1,3,0,.12,0,.23,0,.34,0,.42,0,.82,0,1.22a1.28,1.28,0,0,1,0,.19c0,.45,0,.88.07,1.3,0,.1,0,.2,0,.3,0,.35,0,.7.06,1,0,.08,0,.17,0,.25,0,.39.05.77.08,1.13,0,.08,0,.16,0,.24,0,.3,0,.6.07.88l0,.23c0,.34.06.65.09,1a1,1,0,0,1,0,.17l.09.72,0,.21c0,.26.08.52.12.75,0,0,0,0,0,.08,0,.2.08.39.11.57a.83.83,0,0,1,0,.15,5,5,0,0,0,.14.53c2.33,7.59,12.13,32.89,12.13,32.89l4.32,54.63s-17.8,19.38-28.09,30.85l-3.21,3.59-1.2,1.34-.88,1-1.39,1.55-.59.66-1.35,1.51-.54.61c-.5.56-1,1.1-1.45,1.63l-.23.25c-2.27,2.56-4.13,4.69-5.67,6.51l-.09.1-1,1.22-.07.09c-6.19,7.48-6.39,9.43-8.41,16.75-2.08,7.54.39,17,6.72,22.94a11.68,11.68,0,0,1,8.7,6.33s1.93,4.92,3.75,9.63c1,6.19,2.29,5.92,3,7.77,1.21,3.28,14.16,7.7,19,4.42,2.84-1.93,8.6-4.26,12.89-5.85.54,1.2,12.3-20.47,13.22-22.3s8.25-26.13,8.25-26.13,6.41-33.92,7.79-37.58,18.79-68.3,19.25-70.6,12.38-96.26,12.84-97.63c.33-1-12.36-29.91-19.7-46.62-1.45-27.63,1.46-54.87,1.2-82.88a60.36,60.36,0,0,0-8.83-31.93c-5.1-8.67-3.63-13.92-3.47-27.12-7.27-21.31-18-35.67-36.45-48.35-13.48-9.27-36.11-15.3-51.29-6.42-11.76-8.9-30.36-20.06-43.66-24.05-21.08-6.33-34.09,7.14-50.85,16.12,5.06-13.26,14.52-44.87,25.13-52.93-11.34-23-17.76-42.06-8.56-66.52-10.61,5.07-25,22-37.45,16.62C326,300.74,347,279.68,344.88,249.18c-10.75-4.68-32.39-24.2-22-39-31.59,12.27-29.67-52.45,5.06-55.23C310.74,135.76,303.59,110.3,317.26,95c-1.16.14-2.32.32-3.46.57l-.29.07c-.85.2-1.69.42-2.53.68l-.26.09a39.31,39.31,0,0,0-5,2l-.39.18c-.79.38-1.57.78-2.35,1.22l-.39.22c-.79.44-1.57.9-2.35,1.4l-.06,0c-.79.5-1.57,1-2.35,1.58l-.45.32c-.75.54-1.49,1.1-2.24,1.69l-.44.35c-.77.61-1.54,1.25-2.31,1.91-.28.25-.55.49-.81.74a12.9,12.9,0,0,0-1.84,6.63,94.89,94.89,0,0,0,4.15,22.84s-11.93,0-14.79,2.33-18.43,19.21-19.46,19.73-4.42,9.34-4.42,9.34-8.3,9.6-8.3,11.94,3.89,12.46,3.89,12.46,1.56,11.94,3.12,16.35c0,0-11.68,7.27-12.2,13s10.64,27.51,10.64,27.51-2.86,2.07-2.86,5.19,1.84,9,1.84,9-1.58,7.87,4.91,11l1,11.16s-18.95,5.71-17.65,16.87,24.14,26.73,24.14,26.73,12.71,25.18,12.46,28.55-9.09,20.51-17.39,29.59a251.18,251.18,0,0,1-18.95,18.17l-67,26.47s13-14.28,11.94-14-21,1.82-28.29,14.28-27,55.8-27,55.8l.35,1.92c-2.06-1.49-4.13-3.1-6.14-4.84l-.42,1,7.8,29.47,2.89,15.13c-.86,11.91-1.76,28.33-.33,35.15.81,3.84,3,9,5.59,14.13a78.63,78.63,0,0,0,6.39,14.27,27.22,27.22,0,0,1,3.7,7.63c-.4,1.12-.9,2.57-1.46,4.28L145.72,603s-13.3,33,1.83,63.72c0,0,.34.39,1,1a60.74,60.74,0,0,0,6,9.91s-21,40-22.84,51.65-2.07,96-1.29,100.18S128.29,875.13,127.51,879.54Zm17.24-71.22A39.53,39.53,0,0,1,147.34,796C146.32,800.71,145.44,804.9,144.75,808.32ZM151.38,858c-.1-.87-.21-1.73-.33-2.6.82,1.95,1.64,3.8,2.43,5.51A5.65,5.65,0,0,1,151.38,858Z"/><path class="cls-36" d="M328.34,531.31l0-.66.12-.65c6-31.56,19.67-65.71,20.25-67.15l.6-1.49,1-1.25c7.6-9.37,25-27.88,42.24-45.71.49,1.09,14.27,6.53,17.11,7.64l-44.52,45.7-18,64.1S341.36,694,341.71,700.66s.68,34.45.68,34.45l3.07,26L326,766.28C318.48,695.54,327.91,537.91,328.34,531.31Z"/><path class="cls-37" d="M341.71,700.66c-.35-6.69,5.48-168.82,5.48-168.82l18-64.1L409.71,422l.51.2a19.41,19.41,0,0,1,.73,2.41c-17.44,18.79-35.11,38.13-43,47.63-2.62,6.76-13.36,35.29-18.37,61.06-.71,11.35-9.79,160.76-2.69,227.42l-1.42.38-3.07-26S342.05,707.34,341.71,700.66Z"/><path class="cls-36" d="M455.17,375.36,409.71,422c-2.84-1.11-16.62-6.55-17.11-7.64,21.18-22,42-42.9,43.54-44.52Z"/><path class="cls-38" d="M455.17,375.36,409.71,422c-2.84-1.11-16.62-6.55-17.11-7.64,21.18-22,42-42.9,43.54-44.52Z"/><path class="cls-37" d="M409.71,422l45.46-46.68s.85,4,.61,4.32c0,0-2.34-.3-2.16-.48-6.08,6.36-24.24,25.6-42.67,45.45a19.41,19.41,0,0,0-.73-2.41Z"/><path class="cls-37" d="M409.71,422l45.46-46.68s.85,4,.61,4.32c0,0-2.34-.3-2.16-.48-6.08,6.36-24.24,25.6-42.67,45.45a19.41,19.41,0,0,0-.73-2.41Z"/><path class="cls-36" d="M184,475.09,203.35,421c2.35-1.1,15.88-7.48,19.53-9.67l-23,65-4.59,59.35,35.54,219.79L220,749,178.3,535Z"/><path class="cls-37" d="M199.87,476.31l23-65c.58-.35.91-.59.91-.69,0-.57,1.37.5,2.13,1.15L205.09,479l-5.32,55.44,34.57,223.14-3.52-2.1L195.28,535.66Z"/><path class="cls-36" d="M226.91,400l-4,11.36c-3.65,2.19-17.18,8.57-19.53,9.67l5.46-15.28Z"/><path class="cls-38" d="M226.91,400l-4,11.36c-3.65,2.19-17.18,8.57-19.53,9.67l5.46-15.28Z"/><path class="cls-37" d="M223.79,410.65c0,.1-.33.34-.91.69l4-11.36,1.67,3.24-2.66,8.58C225.16,411.15,223.79,410.08,223.79,410.65Z"/><path class="cls-37" d="M223.79,410.65c0,.1-.33.34-.91.69l4-11.36,1.67,3.24-2.66,8.58C225.16,411.15,223.79,410.08,223.79,410.65Z"/><path class="cls-39" d="M323,574.65l2.38,3.56,24.92-.59,2.57-27-2.58-5.64-25.51.64Zm5.84-5.84,1-17.29,14.49-.88-1,17.58Z"/><polygon class="cls-40" points="350.27 544.93 352.85 550.57 350.28 577.62 325.36 578.21 322.98 574.65 347.29 572.54 350.27 544.93"/><path class="cls-39" d="M181.19,577.36l2.94,3.11,24.47-4.8-2-27.09-3.5-5.13-25,4.94Zm4.77-6.74L184,553.4l14.14-3.31,1.94,17.5Z"/><polygon class="cls-40" points="203.06 543.45 206.56 548.58 208.6 575.66 184.13 580.47 181.19 577.36 204.8 571.16 203.06 543.45"/><path class="cls-39" d="M347.38,739.54s-2.19,22.82-1.25,30.38-4.62,13.6-10.93,15.56c-8.91.53-10.54-15.15-10.54-15.15l-2.09-27.8Z"/><path class="cls-39" d="M346.13,769.92c-.94-7.56,1.25-30.38,1.25-30.38l1.79,1.49s-.6,20.63,0,26.31-2.39,15.54-12.55,17.94a9.49,9.49,0,0,1-1.42.2C341.51,783.52,347.07,777.42,346.13,769.92Z"/><path class="cls-40" d="M346.13,769.92c-.94-7.56,1.25-30.38,1.25-30.38l1.79,1.49s-.6,20.63,0,26.31-2.39,15.54-12.55,17.94a9.49,9.49,0,0,1-1.42.2C341.51,783.52,347.07,777.42,346.13,769.92Z"/><path class="cls-39" d="M234,734.57s1.16,19.18,3,25.88-2.26,10.77-7.6,11.22c-7.83-1.3-11.4-15.09-11.4-15.09l-5.64-24.31Z"/><path class="cls-39" d="M237,760.45c-1.87-6.7-3-25.88-3-25.88l1.8,1.64s2.27,17.61,3.57,22.61,0,12.89-8.7,12.95a7.24,7.24,0,0,1-1.24-.1C234.73,771.22,238.84,767.07,237,760.45Z"/><path class="cls-40" d="M237,760.45c-1.87-6.7-3-25.88-3-25.88l1.8,1.64s2.27,17.61,3.57,22.61,0,12.89-8.7,12.95a7.24,7.24,0,0,1-1.24-.1C234.73,771.22,238.84,767.07,237,760.45Z"/><rect class="cls-41" x="-76.66" y="104" width="843.66" height="634" transform="translate(690.34 842) rotate(-180)"/></g></g></svg>