<svg xmlns="http://www.w3.org/2000/svg" viewBox="0 0 673.24 284.89"><defs><style>.cls-1{font-size:32.98px;}.cls-1,.cls-6{fill:#666;font-family:OpenSans-SemiBold, Open Sans;font-weight:600;}.cls-2,.cls-5{fill:none;stroke-linecap:round;}.cls-2{stroke:#b0b0b0;stroke-linejoin:round;stroke-width:13px;}.cls-3{fill:#b0b0b0;}.cls-4{fill:#efefef;}.cls-5{stroke:#be272d;stroke-miterlimit:10;stroke-width:10px;}.cls-6{font-size:75.22px;}</style></defs><g id="Design"><text class="cls-1" transform="translate(246.43 203.8)">No hay Nuevos Mensajes</text><path class="cls-2" d="M122.75,156.49H34.47s-11,1.92-1.65,12.34l35.92,43.9h149.7V106.31a5.85,5.85,0,0,0-5.75-5.48h-48l-23-1.1L127.42,86.17H69v65.66"/><path class="cls-2" d="M217.07,211.6l-41.5-51.27c-2-2.75-6.2-4.12-6.2-4.12H122.75"/><polygon class="cls-3" points="69.01 88.44 69.01 156.21 169.37 156.21 175.57 160.33 217.07 209.77 217.07 102.87 144.12 99.85 129.8 88.44 69.01 88.44"/><path class="cls-4" d="M97.17,109.8a41.28,41.28,0,1,0-35.92,10.4l-.33.1h1a41.57,41.57,0,0,0,7.1.62,42.15,42.15,0,0,0,6.19-.46l31.07.37Z"/><line class="cls-5" x1="55.12" y1="66.48" x2="82.78" y2="94.03"/><line class="cls-5" x1="55.29" y1="93.61" x2="82.84" y2="65.95"/><text class="cls-6" transform="translate(245.76 154.24)">Oops!</text></g></svg>